%TF.GenerationSoftware,KiCad,Pcbnew,7.0.10*%
%TF.CreationDate,2024-03-15T14:22:34-04:00*%
%TF.ProjectId,new_middle,6e65775f-6d69-4646-946c-652e6b696361,rev?*%
%TF.SameCoordinates,Original*%
%TF.FileFunction,Legend,Top*%
%TF.FilePolarity,Positive*%
%FSLAX46Y46*%
G04 Gerber Fmt 4.6, Leading zero omitted, Abs format (unit mm)*
G04 Created by KiCad (PCBNEW 7.0.10) date 2024-03-15 14:22:34*
%MOMM*%
%LPD*%
G01*
G04 APERTURE LIST*
%ADD10C,0.150000*%
%ADD11C,0.120000*%
G04 APERTURE END LIST*
D10*
X21214285Y-46684819D02*
X21214285Y-47399104D01*
X21214285Y-47399104D02*
X21166666Y-47541961D01*
X21166666Y-47541961D02*
X21071428Y-47637200D01*
X21071428Y-47637200D02*
X20928571Y-47684819D01*
X20928571Y-47684819D02*
X20833333Y-47684819D01*
X22214285Y-47684819D02*
X21642857Y-47684819D01*
X21928571Y-47684819D02*
X21928571Y-46684819D01*
X21928571Y-46684819D02*
X21833333Y-46827676D01*
X21833333Y-46827676D02*
X21738095Y-46922914D01*
X21738095Y-46922914D02*
X21642857Y-46970533D01*
X22833333Y-46684819D02*
X22928571Y-46684819D01*
X22928571Y-46684819D02*
X23023809Y-46732438D01*
X23023809Y-46732438D02*
X23071428Y-46780057D01*
X23071428Y-46780057D02*
X23119047Y-46875295D01*
X23119047Y-46875295D02*
X23166666Y-47065771D01*
X23166666Y-47065771D02*
X23166666Y-47303866D01*
X23166666Y-47303866D02*
X23119047Y-47494342D01*
X23119047Y-47494342D02*
X23071428Y-47589580D01*
X23071428Y-47589580D02*
X23023809Y-47637200D01*
X23023809Y-47637200D02*
X22928571Y-47684819D01*
X22928571Y-47684819D02*
X22833333Y-47684819D01*
X22833333Y-47684819D02*
X22738095Y-47637200D01*
X22738095Y-47637200D02*
X22690476Y-47589580D01*
X22690476Y-47589580D02*
X22642857Y-47494342D01*
X22642857Y-47494342D02*
X22595238Y-47303866D01*
X22595238Y-47303866D02*
X22595238Y-47065771D01*
X22595238Y-47065771D02*
X22642857Y-46875295D01*
X22642857Y-46875295D02*
X22690476Y-46780057D01*
X22690476Y-46780057D02*
X22738095Y-46732438D01*
X22738095Y-46732438D02*
X22833333Y-46684819D01*
X24023809Y-47018152D02*
X24023809Y-47684819D01*
X23785714Y-46637200D02*
X23547619Y-47351485D01*
X23547619Y-47351485D02*
X24166666Y-47351485D01*
X62236112Y-22175870D02*
X62854701Y-22533013D01*
X62854701Y-22533013D02*
X62954610Y-22645681D01*
X62954610Y-22645681D02*
X62989469Y-22775779D01*
X62989469Y-22775779D02*
X62959280Y-22923306D01*
X62959280Y-22923306D02*
X62911661Y-23005785D01*
X63602137Y-21809845D02*
X63316423Y-22304716D01*
X63459280Y-22057281D02*
X62593255Y-21557281D01*
X62593255Y-21557281D02*
X62669354Y-21711188D01*
X62669354Y-21711188D02*
X62704213Y-21841285D01*
X62704213Y-21841285D02*
X62697833Y-21947574D01*
X63045636Y-20773734D02*
X63093255Y-20691255D01*
X63093255Y-20691255D02*
X63182113Y-20632586D01*
X63182113Y-20632586D02*
X63247162Y-20615156D01*
X63247162Y-20615156D02*
X63353450Y-20621536D01*
X63353450Y-20621536D02*
X63542217Y-20675535D01*
X63542217Y-20675535D02*
X63748413Y-20794582D01*
X63748413Y-20794582D02*
X63889561Y-20931060D01*
X63889561Y-20931060D02*
X63948230Y-21019918D01*
X63948230Y-21019918D02*
X63965660Y-21084967D01*
X63965660Y-21084967D02*
X63959280Y-21191255D01*
X63959280Y-21191255D02*
X63911661Y-21273734D01*
X63911661Y-21273734D02*
X63822803Y-21332403D01*
X63822803Y-21332403D02*
X63757754Y-21349833D01*
X63757754Y-21349833D02*
X63651466Y-21343453D01*
X63651466Y-21343453D02*
X63462699Y-21289454D01*
X63462699Y-21289454D02*
X63256502Y-21170407D01*
X63256502Y-21170407D02*
X63115355Y-21033929D01*
X63115355Y-21033929D02*
X63056686Y-20945071D01*
X63056686Y-20945071D02*
X63039256Y-20880022D01*
X63039256Y-20880022D02*
X63045636Y-20773734D01*
X63485257Y-20202763D02*
X63467827Y-20137714D01*
X63467827Y-20137714D02*
X63474207Y-20031426D01*
X63474207Y-20031426D02*
X63593255Y-19825230D01*
X63593255Y-19825230D02*
X63682113Y-19766561D01*
X63682113Y-19766561D02*
X63747162Y-19749131D01*
X63747162Y-19749131D02*
X63853450Y-19755511D01*
X63853450Y-19755511D02*
X63935929Y-19803130D01*
X63935929Y-19803130D02*
X64035837Y-19915798D01*
X64035837Y-19915798D02*
X64244994Y-20696383D01*
X64244994Y-20696383D02*
X64554518Y-20160273D01*
X17214285Y-46684819D02*
X17214285Y-47399104D01*
X17214285Y-47399104D02*
X17166666Y-47541961D01*
X17166666Y-47541961D02*
X17071428Y-47637200D01*
X17071428Y-47637200D02*
X16928571Y-47684819D01*
X16928571Y-47684819D02*
X16833333Y-47684819D01*
X18214285Y-47684819D02*
X17642857Y-47684819D01*
X17928571Y-47684819D02*
X17928571Y-46684819D01*
X17928571Y-46684819D02*
X17833333Y-46827676D01*
X17833333Y-46827676D02*
X17738095Y-46922914D01*
X17738095Y-46922914D02*
X17642857Y-46970533D01*
X18833333Y-46684819D02*
X18928571Y-46684819D01*
X18928571Y-46684819D02*
X19023809Y-46732438D01*
X19023809Y-46732438D02*
X19071428Y-46780057D01*
X19071428Y-46780057D02*
X19119047Y-46875295D01*
X19119047Y-46875295D02*
X19166666Y-47065771D01*
X19166666Y-47065771D02*
X19166666Y-47303866D01*
X19166666Y-47303866D02*
X19119047Y-47494342D01*
X19119047Y-47494342D02*
X19071428Y-47589580D01*
X19071428Y-47589580D02*
X19023809Y-47637200D01*
X19023809Y-47637200D02*
X18928571Y-47684819D01*
X18928571Y-47684819D02*
X18833333Y-47684819D01*
X18833333Y-47684819D02*
X18738095Y-47637200D01*
X18738095Y-47637200D02*
X18690476Y-47589580D01*
X18690476Y-47589580D02*
X18642857Y-47494342D01*
X18642857Y-47494342D02*
X18595238Y-47303866D01*
X18595238Y-47303866D02*
X18595238Y-47065771D01*
X18595238Y-47065771D02*
X18642857Y-46875295D01*
X18642857Y-46875295D02*
X18690476Y-46780057D01*
X18690476Y-46780057D02*
X18738095Y-46732438D01*
X18738095Y-46732438D02*
X18833333Y-46684819D01*
X20119047Y-47684819D02*
X19547619Y-47684819D01*
X19833333Y-47684819D02*
X19833333Y-46684819D01*
X19833333Y-46684819D02*
X19738095Y-46827676D01*
X19738095Y-46827676D02*
X19642857Y-46922914D01*
X19642857Y-46922914D02*
X19547619Y-46970533D01*
X63180393Y-77278948D02*
X62561803Y-77636090D01*
X62561803Y-77636090D02*
X62414276Y-77666280D01*
X62414276Y-77666280D02*
X62284178Y-77631420D01*
X62284178Y-77631420D02*
X62171510Y-77531512D01*
X62171510Y-77531512D02*
X62123891Y-77449033D01*
X62814368Y-78644973D02*
X62528653Y-78150102D01*
X62671510Y-78397537D02*
X63537536Y-77897537D01*
X63537536Y-77897537D02*
X63366199Y-77886487D01*
X63366199Y-77886487D02*
X63236101Y-77851628D01*
X63236101Y-77851628D02*
X63147243Y-77792959D01*
X63989917Y-78681084D02*
X64037536Y-78763563D01*
X64037536Y-78763563D02*
X64043916Y-78869851D01*
X64043916Y-78869851D02*
X64026486Y-78934900D01*
X64026486Y-78934900D02*
X63967817Y-79023758D01*
X63967817Y-79023758D02*
X63826669Y-79160236D01*
X63826669Y-79160236D02*
X63620472Y-79279283D01*
X63620472Y-79279283D02*
X63431706Y-79333282D01*
X63431706Y-79333282D02*
X63325418Y-79339662D01*
X63325418Y-79339662D02*
X63260369Y-79322232D01*
X63260369Y-79322232D02*
X63171510Y-79263563D01*
X63171510Y-79263563D02*
X63123891Y-79181084D01*
X63123891Y-79181084D02*
X63117512Y-79074796D01*
X63117512Y-79074796D02*
X63134941Y-79009747D01*
X63134941Y-79009747D02*
X63193610Y-78920889D01*
X63193610Y-78920889D02*
X63334758Y-78784412D01*
X63334758Y-78784412D02*
X63540955Y-78665364D01*
X63540955Y-78665364D02*
X63729721Y-78611365D01*
X63729721Y-78611365D02*
X63836010Y-78604985D01*
X63836010Y-78604985D02*
X63901058Y-78622415D01*
X63901058Y-78622415D02*
X63989917Y-78681084D01*
X64323250Y-79258435D02*
X64632774Y-79794546D01*
X64632774Y-79794546D02*
X64136193Y-79696347D01*
X64136193Y-79696347D02*
X64207621Y-79820064D01*
X64207621Y-79820064D02*
X64214001Y-79926353D01*
X64214001Y-79926353D02*
X64196571Y-79991401D01*
X64196571Y-79991401D02*
X64137902Y-80080260D01*
X64137902Y-80080260D02*
X63931706Y-80199307D01*
X63931706Y-80199307D02*
X63825418Y-80205687D01*
X63825418Y-80205687D02*
X63760369Y-80188257D01*
X63760369Y-80188257D02*
X63671510Y-80129588D01*
X63671510Y-80129588D02*
X63528653Y-79882152D01*
X63528653Y-79882152D02*
X63522274Y-79775864D01*
X63522274Y-79775864D02*
X63539703Y-79710816D01*
X61180393Y-73814948D02*
X60561803Y-74172090D01*
X60561803Y-74172090D02*
X60414276Y-74202280D01*
X60414276Y-74202280D02*
X60284178Y-74167420D01*
X60284178Y-74167420D02*
X60171510Y-74067512D01*
X60171510Y-74067512D02*
X60123891Y-73985033D01*
X60814368Y-75180973D02*
X60528653Y-74686102D01*
X60671510Y-74933537D02*
X61537536Y-74433537D01*
X61537536Y-74433537D02*
X61366199Y-74422487D01*
X61366199Y-74422487D02*
X61236101Y-74387628D01*
X61236101Y-74387628D02*
X61147243Y-74328959D01*
X61989917Y-75217084D02*
X62037536Y-75299563D01*
X62037536Y-75299563D02*
X62043916Y-75405851D01*
X62043916Y-75405851D02*
X62026486Y-75470900D01*
X62026486Y-75470900D02*
X61967817Y-75559758D01*
X61967817Y-75559758D02*
X61826669Y-75696236D01*
X61826669Y-75696236D02*
X61620472Y-75815283D01*
X61620472Y-75815283D02*
X61431706Y-75869282D01*
X61431706Y-75869282D02*
X61325418Y-75875662D01*
X61325418Y-75875662D02*
X61260369Y-75858232D01*
X61260369Y-75858232D02*
X61171510Y-75799563D01*
X61171510Y-75799563D02*
X61123891Y-75717084D01*
X61123891Y-75717084D02*
X61117512Y-75610796D01*
X61117512Y-75610796D02*
X61134941Y-75545747D01*
X61134941Y-75545747D02*
X61193610Y-75456889D01*
X61193610Y-75456889D02*
X61334758Y-75320412D01*
X61334758Y-75320412D02*
X61540955Y-75201364D01*
X61540955Y-75201364D02*
X61729721Y-75147365D01*
X61729721Y-75147365D02*
X61836010Y-75140985D01*
X61836010Y-75140985D02*
X61901058Y-75158415D01*
X61901058Y-75158415D02*
X61989917Y-75217084D01*
X62585155Y-76248067D02*
X62489917Y-76083110D01*
X62489917Y-76083110D02*
X62401058Y-76024441D01*
X62401058Y-76024441D02*
X62336010Y-76007011D01*
X62336010Y-76007011D02*
X62164673Y-75995961D01*
X62164673Y-75995961D02*
X61975906Y-76049960D01*
X61975906Y-76049960D02*
X61645991Y-76240436D01*
X61645991Y-76240436D02*
X61587322Y-76329294D01*
X61587322Y-76329294D02*
X61569893Y-76394343D01*
X61569893Y-76394343D02*
X61576272Y-76500631D01*
X61576272Y-76500631D02*
X61671510Y-76665588D01*
X61671510Y-76665588D02*
X61760369Y-76724257D01*
X61760369Y-76724257D02*
X61825418Y-76741687D01*
X61825418Y-76741687D02*
X61931706Y-76735307D01*
X61931706Y-76735307D02*
X62137902Y-76616260D01*
X62137902Y-76616260D02*
X62196571Y-76527401D01*
X62196571Y-76527401D02*
X62214001Y-76462353D01*
X62214001Y-76462353D02*
X62207621Y-76356064D01*
X62207621Y-76356064D02*
X62112383Y-76191107D01*
X62112383Y-76191107D02*
X62023525Y-76132438D01*
X62023525Y-76132438D02*
X61958476Y-76115008D01*
X61958476Y-76115008D02*
X61852188Y-76121388D01*
X60236112Y-25639870D02*
X60854701Y-25997013D01*
X60854701Y-25997013D02*
X60954610Y-26109681D01*
X60954610Y-26109681D02*
X60989469Y-26239779D01*
X60989469Y-26239779D02*
X60959280Y-26387306D01*
X60959280Y-26387306D02*
X60911661Y-26469785D01*
X61602137Y-25273845D02*
X61316423Y-25768716D01*
X61459280Y-25521281D02*
X60593255Y-25021281D01*
X60593255Y-25021281D02*
X60669354Y-25175188D01*
X60669354Y-25175188D02*
X60704213Y-25305285D01*
X60704213Y-25305285D02*
X60697833Y-25411574D01*
X61045636Y-24237734D02*
X61093255Y-24155255D01*
X61093255Y-24155255D02*
X61182113Y-24096586D01*
X61182113Y-24096586D02*
X61247162Y-24079156D01*
X61247162Y-24079156D02*
X61353450Y-24085536D01*
X61353450Y-24085536D02*
X61542217Y-24139535D01*
X61542217Y-24139535D02*
X61748413Y-24258582D01*
X61748413Y-24258582D02*
X61889561Y-24395060D01*
X61889561Y-24395060D02*
X61948230Y-24483918D01*
X61948230Y-24483918D02*
X61965660Y-24548967D01*
X61965660Y-24548967D02*
X61959280Y-24655255D01*
X61959280Y-24655255D02*
X61911661Y-24737734D01*
X61911661Y-24737734D02*
X61822803Y-24796403D01*
X61822803Y-24796403D02*
X61757754Y-24813833D01*
X61757754Y-24813833D02*
X61651466Y-24807453D01*
X61651466Y-24807453D02*
X61462699Y-24753454D01*
X61462699Y-24753454D02*
X61256502Y-24634407D01*
X61256502Y-24634407D02*
X61115355Y-24497929D01*
X61115355Y-24497929D02*
X61056686Y-24409071D01*
X61056686Y-24409071D02*
X61039256Y-24344022D01*
X61039256Y-24344022D02*
X61045636Y-24237734D01*
X61664683Y-23165512D02*
X61426588Y-23577905D01*
X61426588Y-23577905D02*
X61815172Y-23857239D01*
X61815172Y-23857239D02*
X61797742Y-23792191D01*
X61797742Y-23792191D02*
X61804122Y-23685902D01*
X61804122Y-23685902D02*
X61923169Y-23479706D01*
X61923169Y-23479706D02*
X62012028Y-23421037D01*
X62012028Y-23421037D02*
X62077076Y-23403607D01*
X62077076Y-23403607D02*
X62183364Y-23409987D01*
X62183364Y-23409987D02*
X62389561Y-23529034D01*
X62389561Y-23529034D02*
X62448230Y-23617893D01*
X62448230Y-23617893D02*
X62465660Y-23682942D01*
X62465660Y-23682942D02*
X62459280Y-23789230D01*
X62459280Y-23789230D02*
X62340233Y-23995426D01*
X62340233Y-23995426D02*
X62251374Y-24054095D01*
X62251374Y-24054095D02*
X62186325Y-24071525D01*
D11*
%TO.C,J104*%
X21170000Y-51210000D02*
X21170000Y-51330000D01*
X21170000Y-51330000D02*
X23830000Y-51330000D01*
X22500000Y-48670000D02*
X23830000Y-48670000D01*
X23830000Y-48670000D02*
X23830000Y-50000000D01*
X23830000Y-51210000D02*
X23830000Y-51330000D01*
%TO.C,J102*%
X66132891Y-24476814D02*
X66236814Y-24536814D01*
X66236814Y-24536814D02*
X67566814Y-22233186D01*
X64598186Y-22055000D02*
X65263186Y-20903186D01*
X65263186Y-20903186D02*
X66415000Y-21568186D01*
X67462891Y-22173186D02*
X67566814Y-22233186D01*
%TO.C,J101*%
X17170000Y-51210000D02*
X17170000Y-51330000D01*
X17170000Y-51330000D02*
X19830000Y-51330000D01*
X18500000Y-48670000D02*
X19830000Y-48670000D01*
X19830000Y-48670000D02*
X19830000Y-50000000D01*
X19830000Y-51210000D02*
X19830000Y-51330000D01*
%TO.C,J103*%
X67462891Y-77826814D02*
X67566814Y-77766814D01*
X67566814Y-77766814D02*
X66236814Y-75463186D01*
X64598186Y-77945000D02*
X63933186Y-76793186D01*
X63933186Y-76793186D02*
X65085000Y-76128186D01*
X66132891Y-75523186D02*
X66236814Y-75463186D01*
%TO.C,J106*%
X65462891Y-74362814D02*
X65566814Y-74302814D01*
X65566814Y-74302814D02*
X64236814Y-71999186D01*
X62598186Y-74481000D02*
X61933186Y-73329186D01*
X61933186Y-73329186D02*
X63085000Y-72664186D01*
X64132891Y-72059186D02*
X64236814Y-71999186D01*
%TO.C,J105*%
X64132891Y-27940814D02*
X64236814Y-28000814D01*
X64236814Y-28000814D02*
X65566814Y-25697186D01*
X62598186Y-25519000D02*
X63263186Y-24367186D01*
X63263186Y-24367186D02*
X64415000Y-25032186D01*
X65462891Y-25637186D02*
X65566814Y-25697186D01*
%TD*%
M02*
