%TF.GenerationSoftware,KiCad,Pcbnew,7.0.10*%
%TF.CreationDate,2024-03-15T14:32:04-04:00*%
%TF.ProjectId,new_middle,6e65775f-6d69-4646-946c-652e6b696361,rev?*%
%TF.SameCoordinates,Original*%
%TF.FileFunction,Legend,Top*%
%TF.FilePolarity,Positive*%
%FSLAX46Y46*%
G04 Gerber Fmt 4.6, Leading zero omitted, Abs format (unit mm)*
G04 Created by KiCad (PCBNEW 7.0.10) date 2024-03-15 14:32:04*
%MOMM*%
%LPD*%
G01*
G04 APERTURE LIST*
%ADD10C,0.150000*%
%ADD11C,0.120000*%
G04 APERTURE END LIST*
D10*
X62236112Y-22175870D02*
X62854701Y-22533013D01*
X62854701Y-22533013D02*
X62954610Y-22645681D01*
X62954610Y-22645681D02*
X62989469Y-22775779D01*
X62989469Y-22775779D02*
X62959280Y-22923306D01*
X62959280Y-22923306D02*
X62911661Y-23005785D01*
X63602137Y-21809845D02*
X63316423Y-22304716D01*
X63459280Y-22057281D02*
X62593255Y-21557281D01*
X62593255Y-21557281D02*
X62669354Y-21711188D01*
X62669354Y-21711188D02*
X62704213Y-21841285D01*
X62704213Y-21841285D02*
X62697833Y-21947574D01*
X63045636Y-20773734D02*
X63093255Y-20691255D01*
X63093255Y-20691255D02*
X63182113Y-20632586D01*
X63182113Y-20632586D02*
X63247162Y-20615156D01*
X63247162Y-20615156D02*
X63353450Y-20621536D01*
X63353450Y-20621536D02*
X63542217Y-20675535D01*
X63542217Y-20675535D02*
X63748413Y-20794582D01*
X63748413Y-20794582D02*
X63889561Y-20931060D01*
X63889561Y-20931060D02*
X63948230Y-21019918D01*
X63948230Y-21019918D02*
X63965660Y-21084967D01*
X63965660Y-21084967D02*
X63959280Y-21191255D01*
X63959280Y-21191255D02*
X63911661Y-21273734D01*
X63911661Y-21273734D02*
X63822803Y-21332403D01*
X63822803Y-21332403D02*
X63757754Y-21349833D01*
X63757754Y-21349833D02*
X63651466Y-21343453D01*
X63651466Y-21343453D02*
X63462699Y-21289454D01*
X63462699Y-21289454D02*
X63256502Y-21170407D01*
X63256502Y-21170407D02*
X63115355Y-21033929D01*
X63115355Y-21033929D02*
X63056686Y-20945071D01*
X63056686Y-20945071D02*
X63039256Y-20880022D01*
X63039256Y-20880022D02*
X63045636Y-20773734D01*
X63485257Y-20202763D02*
X63467827Y-20137714D01*
X63467827Y-20137714D02*
X63474207Y-20031426D01*
X63474207Y-20031426D02*
X63593255Y-19825230D01*
X63593255Y-19825230D02*
X63682113Y-19766561D01*
X63682113Y-19766561D02*
X63747162Y-19749131D01*
X63747162Y-19749131D02*
X63853450Y-19755511D01*
X63853450Y-19755511D02*
X63935929Y-19803130D01*
X63935929Y-19803130D02*
X64035837Y-19915798D01*
X64035837Y-19915798D02*
X64244994Y-20696383D01*
X64244994Y-20696383D02*
X64554518Y-20160273D01*
X17214285Y-46684819D02*
X17214285Y-47399104D01*
X17214285Y-47399104D02*
X17166666Y-47541961D01*
X17166666Y-47541961D02*
X17071428Y-47637200D01*
X17071428Y-47637200D02*
X16928571Y-47684819D01*
X16928571Y-47684819D02*
X16833333Y-47684819D01*
X18214285Y-47684819D02*
X17642857Y-47684819D01*
X17928571Y-47684819D02*
X17928571Y-46684819D01*
X17928571Y-46684819D02*
X17833333Y-46827676D01*
X17833333Y-46827676D02*
X17738095Y-46922914D01*
X17738095Y-46922914D02*
X17642857Y-46970533D01*
X18833333Y-46684819D02*
X18928571Y-46684819D01*
X18928571Y-46684819D02*
X19023809Y-46732438D01*
X19023809Y-46732438D02*
X19071428Y-46780057D01*
X19071428Y-46780057D02*
X19119047Y-46875295D01*
X19119047Y-46875295D02*
X19166666Y-47065771D01*
X19166666Y-47065771D02*
X19166666Y-47303866D01*
X19166666Y-47303866D02*
X19119047Y-47494342D01*
X19119047Y-47494342D02*
X19071428Y-47589580D01*
X19071428Y-47589580D02*
X19023809Y-47637200D01*
X19023809Y-47637200D02*
X18928571Y-47684819D01*
X18928571Y-47684819D02*
X18833333Y-47684819D01*
X18833333Y-47684819D02*
X18738095Y-47637200D01*
X18738095Y-47637200D02*
X18690476Y-47589580D01*
X18690476Y-47589580D02*
X18642857Y-47494342D01*
X18642857Y-47494342D02*
X18595238Y-47303866D01*
X18595238Y-47303866D02*
X18595238Y-47065771D01*
X18595238Y-47065771D02*
X18642857Y-46875295D01*
X18642857Y-46875295D02*
X18690476Y-46780057D01*
X18690476Y-46780057D02*
X18738095Y-46732438D01*
X18738095Y-46732438D02*
X18833333Y-46684819D01*
X20119047Y-47684819D02*
X19547619Y-47684819D01*
X19833333Y-47684819D02*
X19833333Y-46684819D01*
X19833333Y-46684819D02*
X19738095Y-46827676D01*
X19738095Y-46827676D02*
X19642857Y-46922914D01*
X19642857Y-46922914D02*
X19547619Y-46970533D01*
X63180393Y-77278948D02*
X62561803Y-77636090D01*
X62561803Y-77636090D02*
X62414276Y-77666280D01*
X62414276Y-77666280D02*
X62284178Y-77631420D01*
X62284178Y-77631420D02*
X62171510Y-77531512D01*
X62171510Y-77531512D02*
X62123891Y-77449033D01*
X62814368Y-78644973D02*
X62528653Y-78150102D01*
X62671510Y-78397537D02*
X63537536Y-77897537D01*
X63537536Y-77897537D02*
X63366199Y-77886487D01*
X63366199Y-77886487D02*
X63236101Y-77851628D01*
X63236101Y-77851628D02*
X63147243Y-77792959D01*
X63989917Y-78681084D02*
X64037536Y-78763563D01*
X64037536Y-78763563D02*
X64043916Y-78869851D01*
X64043916Y-78869851D02*
X64026486Y-78934900D01*
X64026486Y-78934900D02*
X63967817Y-79023758D01*
X63967817Y-79023758D02*
X63826669Y-79160236D01*
X63826669Y-79160236D02*
X63620472Y-79279283D01*
X63620472Y-79279283D02*
X63431706Y-79333282D01*
X63431706Y-79333282D02*
X63325418Y-79339662D01*
X63325418Y-79339662D02*
X63260369Y-79322232D01*
X63260369Y-79322232D02*
X63171510Y-79263563D01*
X63171510Y-79263563D02*
X63123891Y-79181084D01*
X63123891Y-79181084D02*
X63117512Y-79074796D01*
X63117512Y-79074796D02*
X63134941Y-79009747D01*
X63134941Y-79009747D02*
X63193610Y-78920889D01*
X63193610Y-78920889D02*
X63334758Y-78784412D01*
X63334758Y-78784412D02*
X63540955Y-78665364D01*
X63540955Y-78665364D02*
X63729721Y-78611365D01*
X63729721Y-78611365D02*
X63836010Y-78604985D01*
X63836010Y-78604985D02*
X63901058Y-78622415D01*
X63901058Y-78622415D02*
X63989917Y-78681084D01*
X64323250Y-79258435D02*
X64632774Y-79794546D01*
X64632774Y-79794546D02*
X64136193Y-79696347D01*
X64136193Y-79696347D02*
X64207621Y-79820064D01*
X64207621Y-79820064D02*
X64214001Y-79926353D01*
X64214001Y-79926353D02*
X64196571Y-79991401D01*
X64196571Y-79991401D02*
X64137902Y-80080260D01*
X64137902Y-80080260D02*
X63931706Y-80199307D01*
X63931706Y-80199307D02*
X63825418Y-80205687D01*
X63825418Y-80205687D02*
X63760369Y-80188257D01*
X63760369Y-80188257D02*
X63671510Y-80129588D01*
X63671510Y-80129588D02*
X63528653Y-79882152D01*
X63528653Y-79882152D02*
X63522274Y-79775864D01*
X63522274Y-79775864D02*
X63539703Y-79710816D01*
D11*
%TO.C,J102*%
X66132891Y-24476814D02*
X66236814Y-24536814D01*
X66236814Y-24536814D02*
X67566814Y-22233186D01*
X64598186Y-22055000D02*
X65263186Y-20903186D01*
X65263186Y-20903186D02*
X66415000Y-21568186D01*
X67462891Y-22173186D02*
X67566814Y-22233186D01*
%TO.C,J101*%
X17170000Y-51210000D02*
X17170000Y-51330000D01*
X17170000Y-51330000D02*
X19830000Y-51330000D01*
X18500000Y-48670000D02*
X19830000Y-48670000D01*
X19830000Y-48670000D02*
X19830000Y-50000000D01*
X19830000Y-51210000D02*
X19830000Y-51330000D01*
%TO.C,J103*%
X67462891Y-77826814D02*
X67566814Y-77766814D01*
X67566814Y-77766814D02*
X66236814Y-75463186D01*
X64598186Y-77945000D02*
X63933186Y-76793186D01*
X63933186Y-76793186D02*
X65085000Y-76128186D01*
X66132891Y-75523186D02*
X66236814Y-75463186D01*
%TD*%
M02*
