%TF.GenerationSoftware,KiCad,Pcbnew,7.0.10*%
%TF.CreationDate,2024-03-15T10:59:13-04:00*%
%TF.ProjectId,new_base,6e65775f-6261-4736-952e-6b696361645f,rev?*%
%TF.SameCoordinates,Original*%
%TF.FileFunction,Copper,L1,Top*%
%TF.FilePolarity,Positive*%
%FSLAX46Y46*%
G04 Gerber Fmt 4.6, Leading zero omitted, Abs format (unit mm)*
G04 Created by KiCad (PCBNEW 7.0.10) date 2024-03-15 10:59:13*
%MOMM*%
%LPD*%
G01*
G04 APERTURE LIST*
%TA.AperFunction,NonConductor*%
%ADD10C,1.600000*%
%TD*%
%TA.AperFunction,NonConductor*%
%ADD11C,1.200000*%
%TD*%
%TA.AperFunction,ComponentPad*%
%ADD12C,1.600000*%
%TD*%
G04 APERTURE END LIST*
D10*
X55400000Y-59353000D02*
X56400000Y-61085000D01*
X55400000Y-40647000D02*
X57400000Y-37183000D01*
X39200000Y-50000000D02*
X33200000Y-50000000D01*
D11*
X67000000Y-50000000D02*
G75*
G03*
X33000000Y-50000000I-17000000J0D01*
G01*
X33000000Y-50000000D02*
G75*
G03*
X67000000Y-50000000I17000000J0D01*
G01*
X65000000Y-50000000D02*
G75*
G03*
X35000000Y-50000000I-15000000J0D01*
G01*
X35000000Y-50000000D02*
G75*
G03*
X65000000Y-50000000I15000000J0D01*
G01*
X63000000Y-50000000D02*
G75*
G03*
X37000000Y-50000000I-13000000J0D01*
G01*
X37000000Y-50000000D02*
G75*
G03*
X63000000Y-50000000I13000000J0D01*
G01*
D10*
X74100000Y-91742000D02*
X71100000Y-86546000D01*
X74100000Y-8258000D02*
X72100000Y-11722000D01*
X1800000Y-50000000D02*
X3800000Y-50000000D01*
D11*
X94000000Y-50000000D02*
G75*
G03*
X6000000Y-50000000I-44000000J0D01*
G01*
X6000000Y-50000000D02*
G75*
G03*
X94000000Y-50000000I44000000J0D01*
G01*
X92000000Y-50000000D02*
G75*
G03*
X8000000Y-50000000I-42000000J0D01*
G01*
X8000000Y-50000000D02*
G75*
G03*
X92000000Y-50000000I42000000J0D01*
G01*
X96000000Y-50000000D02*
G75*
G03*
X4000000Y-50000000I-46000000J0D01*
G01*
X4000000Y-50000000D02*
G75*
G03*
X96000000Y-50000000I46000000J0D01*
G01*
D12*
%TO.P,J106,1,Pin_1*%
%TO.N,unconnected-(J106-Pin_1-Pad1)*%
X55400000Y-59353000D03*
%TD*%
%TO.P,J105,1,Pin_1*%
%TO.N,unconnected-(J105-Pin_1-Pad1)*%
X55400000Y-40647000D03*
%TD*%
%TO.P,J104,1,Pin_1*%
%TO.N,unconnected-(J104-Pin_1-Pad1)*%
X39200000Y-50000000D03*
%TD*%
%TO.P,J102,1,Pin_1*%
%TO.N,unconnected-(J102-Pin_1-Pad1)*%
X74100000Y-8258000D03*
%TD*%
%TO.P,J103,1,Pin_1*%
%TO.N,unconnected-(J103-Pin_1-Pad1)*%
X74100000Y-91742000D03*
%TD*%
%TO.P,J101,1,Pin_1*%
%TO.N,unconnected-(J101-Pin_1-Pad1)*%
X1800000Y-50000000D03*
%TD*%
M02*
