%TF.GenerationSoftware,KiCad,Pcbnew,7.0.10*%
%TF.CreationDate,2024-03-15T10:59:13-04:00*%
%TF.ProjectId,new_base,6e65775f-6261-4736-952e-6b696361645f,rev?*%
%TF.SameCoordinates,Original*%
%TF.FileFunction,Legend,Top*%
%TF.FilePolarity,Positive*%
%FSLAX46Y46*%
G04 Gerber Fmt 4.6, Leading zero omitted, Abs format (unit mm)*
G04 Created by KiCad (PCBNEW 7.0.10) date 2024-03-15 10:59:13*
%MOMM*%
%LPD*%
G01*
G04 APERTURE LIST*
%ADD10C,0.150000*%
%ADD11C,0.100000*%
G04 APERTURE END LIST*
D10*
X11000000Y-50000000D02*
G75*
G03*
X9400000Y-50000000I-800000J0D01*
G01*
X9400000Y-50000000D02*
G75*
G03*
X11000000Y-50000000I800000J0D01*
G01*
D11*
X54114285Y-58310419D02*
X54114285Y-59024704D01*
X54114285Y-59024704D02*
X54066666Y-59167561D01*
X54066666Y-59167561D02*
X53971428Y-59262800D01*
X53971428Y-59262800D02*
X53828571Y-59310419D01*
X53828571Y-59310419D02*
X53733333Y-59310419D01*
X55114285Y-59310419D02*
X54542857Y-59310419D01*
X54828571Y-59310419D02*
X54828571Y-58310419D01*
X54828571Y-58310419D02*
X54733333Y-58453276D01*
X54733333Y-58453276D02*
X54638095Y-58548514D01*
X54638095Y-58548514D02*
X54542857Y-58596133D01*
X55733333Y-58310419D02*
X55828571Y-58310419D01*
X55828571Y-58310419D02*
X55923809Y-58358038D01*
X55923809Y-58358038D02*
X55971428Y-58405657D01*
X55971428Y-58405657D02*
X56019047Y-58500895D01*
X56019047Y-58500895D02*
X56066666Y-58691371D01*
X56066666Y-58691371D02*
X56066666Y-58929466D01*
X56066666Y-58929466D02*
X56019047Y-59119942D01*
X56019047Y-59119942D02*
X55971428Y-59215180D01*
X55971428Y-59215180D02*
X55923809Y-59262800D01*
X55923809Y-59262800D02*
X55828571Y-59310419D01*
X55828571Y-59310419D02*
X55733333Y-59310419D01*
X55733333Y-59310419D02*
X55638095Y-59262800D01*
X55638095Y-59262800D02*
X55590476Y-59215180D01*
X55590476Y-59215180D02*
X55542857Y-59119942D01*
X55542857Y-59119942D02*
X55495238Y-58929466D01*
X55495238Y-58929466D02*
X55495238Y-58691371D01*
X55495238Y-58691371D02*
X55542857Y-58500895D01*
X55542857Y-58500895D02*
X55590476Y-58405657D01*
X55590476Y-58405657D02*
X55638095Y-58358038D01*
X55638095Y-58358038D02*
X55733333Y-58310419D01*
X56923809Y-58310419D02*
X56733333Y-58310419D01*
X56733333Y-58310419D02*
X56638095Y-58358038D01*
X56638095Y-58358038D02*
X56590476Y-58405657D01*
X56590476Y-58405657D02*
X56495238Y-58548514D01*
X56495238Y-58548514D02*
X56447619Y-58738990D01*
X56447619Y-58738990D02*
X56447619Y-59119942D01*
X56447619Y-59119942D02*
X56495238Y-59215180D01*
X56495238Y-59215180D02*
X56542857Y-59262800D01*
X56542857Y-59262800D02*
X56638095Y-59310419D01*
X56638095Y-59310419D02*
X56828571Y-59310419D01*
X56828571Y-59310419D02*
X56923809Y-59262800D01*
X56923809Y-59262800D02*
X56971428Y-59215180D01*
X56971428Y-59215180D02*
X57019047Y-59119942D01*
X57019047Y-59119942D02*
X57019047Y-58881847D01*
X57019047Y-58881847D02*
X56971428Y-58786609D01*
X56971428Y-58786609D02*
X56923809Y-58738990D01*
X56923809Y-58738990D02*
X56828571Y-58691371D01*
X56828571Y-58691371D02*
X56638095Y-58691371D01*
X56638095Y-58691371D02*
X56542857Y-58738990D01*
X56542857Y-58738990D02*
X56495238Y-58786609D01*
X56495238Y-58786609D02*
X56447619Y-58881847D01*
X54114285Y-39604419D02*
X54114285Y-40318704D01*
X54114285Y-40318704D02*
X54066666Y-40461561D01*
X54066666Y-40461561D02*
X53971428Y-40556800D01*
X53971428Y-40556800D02*
X53828571Y-40604419D01*
X53828571Y-40604419D02*
X53733333Y-40604419D01*
X55114285Y-40604419D02*
X54542857Y-40604419D01*
X54828571Y-40604419D02*
X54828571Y-39604419D01*
X54828571Y-39604419D02*
X54733333Y-39747276D01*
X54733333Y-39747276D02*
X54638095Y-39842514D01*
X54638095Y-39842514D02*
X54542857Y-39890133D01*
X55733333Y-39604419D02*
X55828571Y-39604419D01*
X55828571Y-39604419D02*
X55923809Y-39652038D01*
X55923809Y-39652038D02*
X55971428Y-39699657D01*
X55971428Y-39699657D02*
X56019047Y-39794895D01*
X56019047Y-39794895D02*
X56066666Y-39985371D01*
X56066666Y-39985371D02*
X56066666Y-40223466D01*
X56066666Y-40223466D02*
X56019047Y-40413942D01*
X56019047Y-40413942D02*
X55971428Y-40509180D01*
X55971428Y-40509180D02*
X55923809Y-40556800D01*
X55923809Y-40556800D02*
X55828571Y-40604419D01*
X55828571Y-40604419D02*
X55733333Y-40604419D01*
X55733333Y-40604419D02*
X55638095Y-40556800D01*
X55638095Y-40556800D02*
X55590476Y-40509180D01*
X55590476Y-40509180D02*
X55542857Y-40413942D01*
X55542857Y-40413942D02*
X55495238Y-40223466D01*
X55495238Y-40223466D02*
X55495238Y-39985371D01*
X55495238Y-39985371D02*
X55542857Y-39794895D01*
X55542857Y-39794895D02*
X55590476Y-39699657D01*
X55590476Y-39699657D02*
X55638095Y-39652038D01*
X55638095Y-39652038D02*
X55733333Y-39604419D01*
X56971428Y-39604419D02*
X56495238Y-39604419D01*
X56495238Y-39604419D02*
X56447619Y-40080609D01*
X56447619Y-40080609D02*
X56495238Y-40032990D01*
X56495238Y-40032990D02*
X56590476Y-39985371D01*
X56590476Y-39985371D02*
X56828571Y-39985371D01*
X56828571Y-39985371D02*
X56923809Y-40032990D01*
X56923809Y-40032990D02*
X56971428Y-40080609D01*
X56971428Y-40080609D02*
X57019047Y-40175847D01*
X57019047Y-40175847D02*
X57019047Y-40413942D01*
X57019047Y-40413942D02*
X56971428Y-40509180D01*
X56971428Y-40509180D02*
X56923809Y-40556800D01*
X56923809Y-40556800D02*
X56828571Y-40604419D01*
X56828571Y-40604419D02*
X56590476Y-40604419D01*
X56590476Y-40604419D02*
X56495238Y-40556800D01*
X56495238Y-40556800D02*
X56447619Y-40509180D01*
X37914285Y-48957419D02*
X37914285Y-49671704D01*
X37914285Y-49671704D02*
X37866666Y-49814561D01*
X37866666Y-49814561D02*
X37771428Y-49909800D01*
X37771428Y-49909800D02*
X37628571Y-49957419D01*
X37628571Y-49957419D02*
X37533333Y-49957419D01*
X38914285Y-49957419D02*
X38342857Y-49957419D01*
X38628571Y-49957419D02*
X38628571Y-48957419D01*
X38628571Y-48957419D02*
X38533333Y-49100276D01*
X38533333Y-49100276D02*
X38438095Y-49195514D01*
X38438095Y-49195514D02*
X38342857Y-49243133D01*
X39533333Y-48957419D02*
X39628571Y-48957419D01*
X39628571Y-48957419D02*
X39723809Y-49005038D01*
X39723809Y-49005038D02*
X39771428Y-49052657D01*
X39771428Y-49052657D02*
X39819047Y-49147895D01*
X39819047Y-49147895D02*
X39866666Y-49338371D01*
X39866666Y-49338371D02*
X39866666Y-49576466D01*
X39866666Y-49576466D02*
X39819047Y-49766942D01*
X39819047Y-49766942D02*
X39771428Y-49862180D01*
X39771428Y-49862180D02*
X39723809Y-49909800D01*
X39723809Y-49909800D02*
X39628571Y-49957419D01*
X39628571Y-49957419D02*
X39533333Y-49957419D01*
X39533333Y-49957419D02*
X39438095Y-49909800D01*
X39438095Y-49909800D02*
X39390476Y-49862180D01*
X39390476Y-49862180D02*
X39342857Y-49766942D01*
X39342857Y-49766942D02*
X39295238Y-49576466D01*
X39295238Y-49576466D02*
X39295238Y-49338371D01*
X39295238Y-49338371D02*
X39342857Y-49147895D01*
X39342857Y-49147895D02*
X39390476Y-49052657D01*
X39390476Y-49052657D02*
X39438095Y-49005038D01*
X39438095Y-49005038D02*
X39533333Y-48957419D01*
X40723809Y-49290752D02*
X40723809Y-49957419D01*
X40485714Y-48909800D02*
X40247619Y-49624085D01*
X40247619Y-49624085D02*
X40866666Y-49624085D01*
X72814285Y-7215419D02*
X72814285Y-7929704D01*
X72814285Y-7929704D02*
X72766666Y-8072561D01*
X72766666Y-8072561D02*
X72671428Y-8167800D01*
X72671428Y-8167800D02*
X72528571Y-8215419D01*
X72528571Y-8215419D02*
X72433333Y-8215419D01*
X73814285Y-8215419D02*
X73242857Y-8215419D01*
X73528571Y-8215419D02*
X73528571Y-7215419D01*
X73528571Y-7215419D02*
X73433333Y-7358276D01*
X73433333Y-7358276D02*
X73338095Y-7453514D01*
X73338095Y-7453514D02*
X73242857Y-7501133D01*
X74433333Y-7215419D02*
X74528571Y-7215419D01*
X74528571Y-7215419D02*
X74623809Y-7263038D01*
X74623809Y-7263038D02*
X74671428Y-7310657D01*
X74671428Y-7310657D02*
X74719047Y-7405895D01*
X74719047Y-7405895D02*
X74766666Y-7596371D01*
X74766666Y-7596371D02*
X74766666Y-7834466D01*
X74766666Y-7834466D02*
X74719047Y-8024942D01*
X74719047Y-8024942D02*
X74671428Y-8120180D01*
X74671428Y-8120180D02*
X74623809Y-8167800D01*
X74623809Y-8167800D02*
X74528571Y-8215419D01*
X74528571Y-8215419D02*
X74433333Y-8215419D01*
X74433333Y-8215419D02*
X74338095Y-8167800D01*
X74338095Y-8167800D02*
X74290476Y-8120180D01*
X74290476Y-8120180D02*
X74242857Y-8024942D01*
X74242857Y-8024942D02*
X74195238Y-7834466D01*
X74195238Y-7834466D02*
X74195238Y-7596371D01*
X74195238Y-7596371D02*
X74242857Y-7405895D01*
X74242857Y-7405895D02*
X74290476Y-7310657D01*
X74290476Y-7310657D02*
X74338095Y-7263038D01*
X74338095Y-7263038D02*
X74433333Y-7215419D01*
X75147619Y-7310657D02*
X75195238Y-7263038D01*
X75195238Y-7263038D02*
X75290476Y-7215419D01*
X75290476Y-7215419D02*
X75528571Y-7215419D01*
X75528571Y-7215419D02*
X75623809Y-7263038D01*
X75623809Y-7263038D02*
X75671428Y-7310657D01*
X75671428Y-7310657D02*
X75719047Y-7405895D01*
X75719047Y-7405895D02*
X75719047Y-7501133D01*
X75719047Y-7501133D02*
X75671428Y-7643990D01*
X75671428Y-7643990D02*
X75100000Y-8215419D01*
X75100000Y-8215419D02*
X75719047Y-8215419D01*
X72814285Y-90699419D02*
X72814285Y-91413704D01*
X72814285Y-91413704D02*
X72766666Y-91556561D01*
X72766666Y-91556561D02*
X72671428Y-91651800D01*
X72671428Y-91651800D02*
X72528571Y-91699419D01*
X72528571Y-91699419D02*
X72433333Y-91699419D01*
X73814285Y-91699419D02*
X73242857Y-91699419D01*
X73528571Y-91699419D02*
X73528571Y-90699419D01*
X73528571Y-90699419D02*
X73433333Y-90842276D01*
X73433333Y-90842276D02*
X73338095Y-90937514D01*
X73338095Y-90937514D02*
X73242857Y-90985133D01*
X74433333Y-90699419D02*
X74528571Y-90699419D01*
X74528571Y-90699419D02*
X74623809Y-90747038D01*
X74623809Y-90747038D02*
X74671428Y-90794657D01*
X74671428Y-90794657D02*
X74719047Y-90889895D01*
X74719047Y-90889895D02*
X74766666Y-91080371D01*
X74766666Y-91080371D02*
X74766666Y-91318466D01*
X74766666Y-91318466D02*
X74719047Y-91508942D01*
X74719047Y-91508942D02*
X74671428Y-91604180D01*
X74671428Y-91604180D02*
X74623809Y-91651800D01*
X74623809Y-91651800D02*
X74528571Y-91699419D01*
X74528571Y-91699419D02*
X74433333Y-91699419D01*
X74433333Y-91699419D02*
X74338095Y-91651800D01*
X74338095Y-91651800D02*
X74290476Y-91604180D01*
X74290476Y-91604180D02*
X74242857Y-91508942D01*
X74242857Y-91508942D02*
X74195238Y-91318466D01*
X74195238Y-91318466D02*
X74195238Y-91080371D01*
X74195238Y-91080371D02*
X74242857Y-90889895D01*
X74242857Y-90889895D02*
X74290476Y-90794657D01*
X74290476Y-90794657D02*
X74338095Y-90747038D01*
X74338095Y-90747038D02*
X74433333Y-90699419D01*
X75100000Y-90699419D02*
X75719047Y-90699419D01*
X75719047Y-90699419D02*
X75385714Y-91080371D01*
X75385714Y-91080371D02*
X75528571Y-91080371D01*
X75528571Y-91080371D02*
X75623809Y-91127990D01*
X75623809Y-91127990D02*
X75671428Y-91175609D01*
X75671428Y-91175609D02*
X75719047Y-91270847D01*
X75719047Y-91270847D02*
X75719047Y-91508942D01*
X75719047Y-91508942D02*
X75671428Y-91604180D01*
X75671428Y-91604180D02*
X75623809Y-91651800D01*
X75623809Y-91651800D02*
X75528571Y-91699419D01*
X75528571Y-91699419D02*
X75242857Y-91699419D01*
X75242857Y-91699419D02*
X75147619Y-91651800D01*
X75147619Y-91651800D02*
X75100000Y-91604180D01*
X514285Y-47457419D02*
X514285Y-48171704D01*
X514285Y-48171704D02*
X466666Y-48314561D01*
X466666Y-48314561D02*
X371428Y-48409800D01*
X371428Y-48409800D02*
X228571Y-48457419D01*
X228571Y-48457419D02*
X133333Y-48457419D01*
X1514285Y-48457419D02*
X942857Y-48457419D01*
X1228571Y-48457419D02*
X1228571Y-47457419D01*
X1228571Y-47457419D02*
X1133333Y-47600276D01*
X1133333Y-47600276D02*
X1038095Y-47695514D01*
X1038095Y-47695514D02*
X942857Y-47743133D01*
X2133333Y-47457419D02*
X2228571Y-47457419D01*
X2228571Y-47457419D02*
X2323809Y-47505038D01*
X2323809Y-47505038D02*
X2371428Y-47552657D01*
X2371428Y-47552657D02*
X2419047Y-47647895D01*
X2419047Y-47647895D02*
X2466666Y-47838371D01*
X2466666Y-47838371D02*
X2466666Y-48076466D01*
X2466666Y-48076466D02*
X2419047Y-48266942D01*
X2419047Y-48266942D02*
X2371428Y-48362180D01*
X2371428Y-48362180D02*
X2323809Y-48409800D01*
X2323809Y-48409800D02*
X2228571Y-48457419D01*
X2228571Y-48457419D02*
X2133333Y-48457419D01*
X2133333Y-48457419D02*
X2038095Y-48409800D01*
X2038095Y-48409800D02*
X1990476Y-48362180D01*
X1990476Y-48362180D02*
X1942857Y-48266942D01*
X1942857Y-48266942D02*
X1895238Y-48076466D01*
X1895238Y-48076466D02*
X1895238Y-47838371D01*
X1895238Y-47838371D02*
X1942857Y-47647895D01*
X1942857Y-47647895D02*
X1990476Y-47552657D01*
X1990476Y-47552657D02*
X2038095Y-47505038D01*
X2038095Y-47505038D02*
X2133333Y-47457419D01*
X3419047Y-48457419D02*
X2847619Y-48457419D01*
X3133333Y-48457419D02*
X3133333Y-47457419D01*
X3133333Y-47457419D02*
X3038095Y-47600276D01*
X3038095Y-47600276D02*
X2942857Y-47695514D01*
X2942857Y-47695514D02*
X2847619Y-47743133D01*
%TO.C,J106*%
X56298026Y-59353000D02*
G75*
G03*
X54501974Y-59353000I-898026J0D01*
G01*
X54501974Y-59353000D02*
G75*
G03*
X56298026Y-59353000I898026J0D01*
G01*
%TO.C,J105*%
X56298026Y-40647000D02*
G75*
G03*
X54501974Y-40647000I-898026J0D01*
G01*
X54501974Y-40647000D02*
G75*
G03*
X56298026Y-40647000I898026J0D01*
G01*
%TO.C,J104*%
X40098026Y-50000000D02*
G75*
G03*
X38301974Y-50000000I-898026J0D01*
G01*
X38301974Y-50000000D02*
G75*
G03*
X40098026Y-50000000I898026J0D01*
G01*
%TO.C,J102*%
X74998026Y-8258000D02*
G75*
G03*
X73201974Y-8258000I-898026J0D01*
G01*
X73201974Y-8258000D02*
G75*
G03*
X74998026Y-8258000I898026J0D01*
G01*
%TO.C,J103*%
X74998026Y-91742000D02*
G75*
G03*
X73201974Y-91742000I-898026J0D01*
G01*
X73201974Y-91742000D02*
G75*
G03*
X74998026Y-91742000I898026J0D01*
G01*
%TO.C,J101*%
X2698026Y-50000000D02*
G75*
G03*
X901974Y-50000000I-898026J0D01*
G01*
X901974Y-50000000D02*
G75*
G03*
X2698026Y-50000000I898026J0D01*
G01*
%TD*%
M02*
